# xmcd
#
# Track frame offsets: 
#        150
#        14442
#        33282
#        48702
#        71997
#        86849
#        100458
#        120362
#        132498
#        146734
#        162991
#        171610
#        186601
#
# Disc length: 2730 seconds
#
# Revision: 0
# Processed by: cddbd v1.5.2PL0 Copyright (c) Steve Scherf et al.
# Submitted via: ExactAudioCopy v0.95b3
#
DISCID=cc0aa80d
DTITLE=Bloomfield, Mike - It's Not Killing Me
DYEAR=1969
DGENRE=Blues
TTITLE0=If You See My Baby
TTITLE1=For Anyone You Meet
TTITLE2=Good Old Guy
TTITLE3=Far Too Many Nights
TTITLE4=It's Not Killing Me
TTITLE5=Next Time You See Me
TTITLE6=Michael's Lament
TTITLE7=Why Must My Baby
TTITLE8=The Ones I Loved Are Gone
TTITLE9=Don't Think About It, Baby
TTITLE10=Goofers
TTITLE11=Good Old Guy
TTITLE12=Slow July Blues
EXTD=
EXTT0=
EXTT1=
EXTT2=
EXTT3=
EXTT4=
EXTT5=
EXTT6=
EXTT7=
EXTT8=
EXTT9=
EXTT10=
EXTT11=
EXTT12=
PLAYORDER=
